# xmcd
#
# Track frame offsets:
#	150
#	20106
#	38057
#	57878
#	79396
#	100657
#	114689
#	132377
#	146277
#	168730
#	182030
#
# Disc length: 2726 seconds
# Revision: 1
# Processed by: cddbd v1.5.2PL0 Copyright (c) Steve Scherf et al.
# Submitted via: dBpowerAMP V12.0
#
DISCID=980aa40b
DTITLE=GT Hurley - Tough Horses
DYEAR=2012
DGENRE=Country
TTITLE0=Tough Horses
TTITLE1=Big Enough
TTITLE2=Granite Mountain Fire
TTITLE3=Damascus Road
TTITLE4=He's A Vaquero
TTITLE5=Born To Ride
TTITLE6=Oh Montana
TTITLE7=Montana Skies
TTITLE8=One Less Horse
TTITLE9=Outlaws On The Run
TTITLE10=El Viento
EXTD=
EXTT0=
EXTT1=
EXTT2=
EXTT3=
EXTT4=
EXTT5=
EXTT6=
EXTT7=
EXTT8=
EXTT9=
EXTT10=
PLAYORDER=
